# xmcd CD database file
#
# Track frame offsets:
#	150
#	13263
#	27857
#	44887
#	60603
#	77456
#	91240
#	109606
#	124362
#	139527
#	155097
#	170465
#
# Disc length: 2618 seconds
#
# Revision: 0
# Processed by: cddbd v1.5.2PL0 Copyright (c) Steve Scherf et al.
# Submitted via: ACXtractor (MTCDDB.DLL V2003.07.15)
#
DISCID=9c0a380c
DTITLE=Reg Poole - Aussie Balladeer
DYEAR=2008
DGENRE=Country
TTITLE0=Aussie Balladeer
TTITLE1=I'm a Grandfather Now
TTITLE2=In The Kimberleys
TTITLE3=The Frog
TTITLE4=If I Had Wings
TTITLE5=Jacaranda Blue
TTITLE6=A Man Like That
TTITLE7=Everlasting Daisies
TTITLE8=Rough Ridin' Ringers
TTITLE9=Fireside Dreams
TTITLE10=Ode To The Road
TTITLE11=Silent Night
EXTD=ID3G:   2 YEAR: 2008
EXTT0=
EXTT1=
EXTT2=
EXTT3=
EXTT4=
EXTT5=
EXTT6=
EXTT7=
EXTT8=
EXTT9=
EXTT10=
EXTT11=
PLAYORDER=
